<svg xmlns="http://www.w3.org/2000/svg" style="width:0;height:0;visibility:hidden;">
<path id="fa-ban" d="M1440 893q0-161-87-295l-754 753q137 89 297 89 111 0 211.5-43.5t173.5-116.5 116-174.5 43-212.5zm-999 299l755-754q-135-91-300-91-148 0-273 73t-198 199-73 274q0 162 89 299zm1223-299q0 157-61 300t-163.5 246-245 164-298.5 61-298.5-61-245-164-163.5-246-61-300 61-299.5 163.5-245.5 245-164 298.5-61 298.5 61 245 164 163.5 245.5 61 299.5z"/>
<path id="fa-bug" d="M1696 960q0 26-19 45t-45 19h-224q0 171-67 290l208 209q19 19 19 45t-19 45q-18 19-45 19t-45-19l-198-197q-5 5-15 13t-42 28.5-65 36.5-82 29-97 13v-896h-128v896q-51 0-101.5-13.5t-87-33-66-39-43.5-32.5l-15-14-183 207q-20 21-48 21-24 0-43-16-19-18-20.5-44.5t15.5-46.5l202-227q-58-114-58-274h-224q-26 0-45-19t-19-45 19-45 45-19h224v-294l-173-173q-19-19-19-45t19-45 45-19 45 19l173 173h844l173-173q19-19 45-19t45 19 19 45-19 45l-173 173v294h224q26 0 45 19t19 45zm-480-576h-640q0-133 93.5-226.5t226.5-93.5 226.5 93.5 93.5 226.5z"/>
<path id="fa-check-square-o" d="M1472 930v318q0 119-84.5 203.5t-203.5 84.5h-832q-119 0-203.5-84.5t-84.5-203.5v-832q0-119 84.5-203.5t203.5-84.5h832q63 0 117 25 15 7 18 23 3 17-9 29l-49 49q-10 10-23 10-3 0-9-2-23-6-45-6h-832q-66 0-113 47t-47 113v832q0 66 47 113t113 47h832q66 0 113-47t47-113v-254q0-13 9-22l64-64q10-10 23-10 6 0 12 3 20 8 20 29zm231-489l-814 814q-24 24-57 24t-57-24l-430-430q-24-24-24-57t24-57l110-110q24-24 57-24t57 24l263 263 647-647q24-24 57-24t57 24l110 110q24 24 24 57t-24 57z"/>
<path id="fa-cog" d="M1152 896q0-106-75-181t-181-75-181 75-75 181 75 181 181 75 181-75 75-181zm512-109v222q0 12-8 23t-20 13l-185 28q-19 54-39 91 35 50 107 138 10 12 10 25t-9 23q-27 37-99 108t-94 71q-12 0-26-9l-138-108q-44 23-91 38-16 136-29 186-7 28-36 28h-222q-14 0-24.5-8.5t-11.5-21.5l-28-184q-49-16-90-37l-141 107q-10 9-25 9-14 0-25-11-126-114-165-168-7-10-7-23 0-12 8-23 15-21 51-66.5t54-70.5q-27-50-41-99l-183-27q-13-2-21-12.5t-8-23.5v-222q0-12 8-23t19-13l186-28q14-46 39-92-40-57-107-138-10-12-10-24 0-10 9-23 26-36 98.5-107.5t94.5-71.5q13 0 26 10l138 107q44-23 91-38 16-136 29-186 7-28 36-28h222q14 0 24.5 8.5t11.5 21.5l28 184q49 16 90 37l142-107q9-9 24-9 13 0 25 10 129 119 165 170 7 8 7 22 0 12-8 23-15 21-51 66.5t-54 70.5q26 50 41 98l183 28q13 2 21 12.5t8 23.5z"/>
<path id="fa-floppy-o" d="M512 1536h768v-384h-768v384zm896 0h128v-896q0-14-10-38.5t-20-34.5l-281-281q-10-10-34-20t-39-10v416q0 40-28 68t-68 28h-576q-40 0-68-28t-28-68v-416h-128v1280h128v-416q0-40 28-68t68-28h832q40 0 68 28t28 68v416zm-384-928v-320q0-13-9.5-22.5t-22.5-9.5h-192q-13 0-22.5 9.5t-9.5 22.5v320q0 13 9.5 22.5t22.5 9.5h192q13 0 22.5-9.5t9.5-22.5zm640 32v928q0 40-28 68t-68 28h-1344q-40 0-68-28t-28-68v-1344q0-40 28-68t68-28h928q40 0 88 20t76 48l280 280q28 28 48 76t20 88z"/>
<path id="fa-home" d="M1472 992v480q0 26-19 45t-45 19h-384v-384h-256v384h-384q-26 0-45-19t-19-45v-480q0-1 .5-3t.5-3l575-474 575 474q1 2 1 6zm223-69l-62 74q-8 9-21 11h-3q-13 0-21-7l-692-577-692 577q-12 8-24 7-13-2-21-11l-62-74q-8-10-7-23.5t11-21.5l719-599q32-26 76-26t76 26l244 204v-195q0-14 9-23t23-9h192q14 0 23 9t9 23v408l219 182q10 8 11 21.5t-7 23.5z"/>
<path id="fa-question-circle" d="M1024 1376v-192q0-14-9-23t-23-9h-192q-14 0-23 9t-9 23v192q0 14 9 23t23 9h192q14 0 23-9t9-23zm256-672q0-88-55.5-163t-138.5-116-170-41q-243 0-371 213-15 24 8 42l132 100q7 6 19 6 16 0 25-12 53-68 86-92 34-24 86-24 48 0 85.5 26t37.5 59q0 38-20 61t-68 45q-63 28-115.5 86.5t-52.5 125.5v36q0 14 9 23t23 9h192q14 0 23-9t9-23q0-19 21.5-49.5t54.5-49.5q32-18 49-28.5t46-35 44.5-48 28-60.5 12.5-81zm384 192q0 209-103 385.5t-279.5 279.5-385.5 103-385.5-103-279.5-279.5-103-385.5 103-385.5 279.5-279.5 385.5-103 385.5 103 279.5 279.5 103 385.5z"/>
<path id="fa-square-o" d="M1312 256h-832q-66 0-113 47t-47 113v832q0 66 47 113t113 47h832q66 0 113-47t47-113v-832q0-66-47-113t-113-47zm288 160v832q0 119-84.5 203.5t-203.5 84.5h-832q-119 0-203.5-84.5t-84.5-203.5v-832q0-119 84.5-203.5t203.5-84.5h832q119 0 203.5 84.5t84.5 203.5z"/>
<path id="fa-th" d="M512 1248v192q0 40-28 68t-68 28h-320q-40 0-68-28t-28-68v-192q0-40 28-68t68-28h320q40 0 68 28t28 68zm0-512v192q0 40-28 68t-68 28h-320q-40 0-68-28t-28-68v-192q0-40 28-68t68-28h320q40 0 68 28t28 68zm640 512v192q0 40-28 68t-68 28h-320q-40 0-68-28t-28-68v-192q0-40 28-68t68-28h320q40 0 68 28t28 68zm-640-1024v192q0 40-28 68t-68 28h-320q-40 0-68-28t-28-68v-192q0-40 28-68t68-28h320q40 0 68 28t28 68zm640 512v192q0 40-28 68t-68 28h-320q-40 0-68-28t-28-68v-192q0-40 28-68t68-28h320q40 0 68 28t28 68zm640 512v192q0 40-28 68t-68 28h-320q-40 0-68-28t-28-68v-192q0-40 28-68t68-28h320q40 0 68 28t28 68zm-640-1024v192q0 40-28 68t-68 28h-320q-40 0-68-28t-28-68v-192q0-40 28-68t68-28h320q40 0 68 28t28 68zm640 512v192q0 40-28 68t-68 28h-320q-40 0-68-28t-28-68v-192q0-40 28-68t68-28h320q40 0 68 28t28 68zm0-512v192q0 40-28 68t-68 28h-320q-40 0-68-28t-28-68v-192q0-40 28-68t68-28h320q40 0 68 28t28 68z"/>
<path id="fa-tint" d="M896 1152q0-36-20-69-1-1-15.5-22.5t-25.5-38-25-44-21-50.5q-4-16-21-16t-21 16q-7 23-21 50.5t-25 44-25.5 38-15.5 22.5q-20 33-20 69 0 53 37.5 90.5t90.5 37.5 90.5-37.5 37.5-90.5zm512-128q0 212-150 362t-362 150-362-150-150-362q0-145 81-275 6-9 62.5-90.5t101-151 99.5-178 83-201.5q9-30 34-47t51-17 51.5 17 33.5 47q28 93 83 201.5t99.5 178 101 151 62.5 90.5q81 127 81 275z"/>
<path id="fa-trash-o" d="M704 736v576q0 14-9 23t-23 9h-64q-14 0-23-9t-9-23v-576q0-14 9-23t23-9h64q14 0 23 9t9 23zm256 0v576q0 14-9 23t-23 9h-64q-14 0-23-9t-9-23v-576q0-14 9-23t23-9h64q14 0 23 9t9 23zm256 0v576q0 14-9 23t-23 9h-64q-14 0-23-9t-9-23v-576q0-14 9-23t23-9h64q14 0 23 9t9 23zm128 724v-948h-896v948q0 22 7 40.5t14.5 27 10.5 8.5h832q3 0 10.5-8.5t14.5-27 7-40.5zm-672-1076h448l-48-117q-7-9-17-11h-317q-10 2-17 11zm928 32v64q0 14-9 23t-23 9h-96v948q0 83-47 143.5t-113 60.5h-832q-66 0-113-58.5t-47-141.5v-952h-96q-14 0-23-9t-9-23v-64q0-14 9-23t23-9h309l70-167q15-37 54-63t79-26h320q40 0 79 26t54 63l70 167h309q14 0 23 9t9 23z"/>
</svg>
